<svg id="Layer_1" data-name="Layer 1" xmlns="http://www.w3.org/2000/svg" viewBox="0 0 1920 1080"><polygon points="487.55 96.49 487.55 124.21 362.82 124.21 362.82 373.65 335.11 373.65 335.11 124.21 210.39 124.21 210.39 96.49 487.55 96.49"/><polygon points="1096.91 706.38 1096.91 859.87 972.2 859.87 972.2 983.49 944.48 983.49 944.48 859.87 819.76 859.87 819.76 832.15 819.81 832.15 819.81 706.38 847.53 706.38 847.53 832.15 1069.2 832.15 1069.2 706.38 1096.91 706.38"/><polygon points="1096.91 401.37 1096.91 429.08 972.2 429.08 972.2 678.52 944.48 678.52 944.48 429.08 819.76 429.08 819.76 401.37 1096.91 401.37"/><polygon points="238.1 429.08 238.1 526.09 487.55 526.09 487.55 553.8 238.1 553.8 238.1 678.52 210.39 678.52 210.39 401.37 487.55 401.37 487.55 429.08 238.1 429.08"/><polygon points="792.71 247.95 792.61 247.95 792.51 221.21 792.61 221.21 792.71 247.95"/><polygon points="1707.73 124.21 846.66 124.17 847 221.28 1707.51 223.38 1707.73 248.93 847.09 246.82 847.43 345.95 1706.55 345.99 1706.56 373.66 822.32 373.64 822.32 373.55 820.8 373.55 819.91 124.17 819.81 96.49 846.56 96.49 1707.73 96.53 1707.73 124.21"/><polygon points="819.91 124.17 819.83 124.17 819.81 96.49 819.91 124.17"/><polygon points="846.56 96.4 846.56 96.49 819.81 96.49 846.56 96.4"/><polygon points="793.51 650.24 793.51 677.91 516.36 677.87 516.36 650.2 516.45 650.2 515.68 428.42 515.58 400.74 542.31 400.74 792.72 400.77 792.74 428.46 542.41 428.42 542.75 526.35 793.1 525.46 793.21 552.2 542.85 553.08 543.2 650.2 793.51 650.24"/><polygon points="515.68 428.42 515.58 428.42 515.58 400.74 515.68 428.42"/><polygon points="542.31 400.64 542.31 400.74 515.58 400.74 542.31 400.64"/><polygon points="210.53 858.29 210.51 858.29 210.51 852.78 210.53 858.29"/><polygon points="210.1 734.02 210 734.02 210 706.34 210.1 734.02"/><path d="M487.16,818.89V706.38H459.48l-222.75,0H210l.1,27.68.41,118.77,0,5.5.34,97.5h-.09v27.69l248.67,0h27.68V871.9l-13.61-13.61L460.65,845.4ZM459.45,955.83l-221.83,0-.35-97.5h222.2Zm0-124.28H237.18L236.83,734l222.65,0Z"/><rect x="459.45" y="983.51" width="27.67" height="0.03"/><rect x="487.13" y="955.83" width="0.8" height="27.67"/><polygon points="236.73 706.24 236.73 706.34 210 706.34 236.73 706.24"/><polygon points="1710 856.72 1709.93 856.72 1709.94 842.53 1710 856.72"/><polygon points="1709.89 829.98 1709.94 841.8 1709.94 842.53 1709.93 856.72 1709.9 983.53 1709.9 983.55 1127.93 983.48 1127.91 955.79 1682.23 955.87 1682.26 856.82 1154.38 858.67 1149.51 858.69 1127.65 858.79 1127.24 734.02 1127.14 706.34 1153.87 706.34 1709.96 706.42 1709.97 734.09 1153.97 734.02 1154.3 831.94 1682.27 830.07 1709.89 829.98"/><polygon points="1127.24 734.02 1127.14 734.02 1127.13 706.34 1127.14 706.34 1127.24 734.02"/><polygon points="1709.94 829.92 1709.94 841.8 1709.89 829.98 1682.27 830.07 1682.27 829.92 1709.94 829.92"/><polygon points="1153.87 706.24 1153.87 706.34 1127.14 706.34 1153.87 706.24"/><polygon points="1125.66 428.42 1125.57 428.42 1125.56 400.74 1125.66 428.42"/><polygon points="1152.31 400.64 1152.31 400.74 1125.56 400.74 1152.31 400.64"/><polygon points="1126.35 650.2 1126.45 650.2 1125.66 428.42 1125.56 400.74 1152.31 400.74 1402.72 400.77 1402.72 428.46 1152.4 428.42 1153.18 650.2 1403.49 650.24 1403.51 677.91 1126.35 677.87 1126.35 650.2"/><polygon points="793.05 373.55 766.31 373.65 765.87 248.04 542.35 248.83 542.8 373.55 516.06 373.65 515.08 96.59 541.83 96.49 542.27 222.1 765.78 221.31 765.34 96.59 792.07 96.49 792.51 221.21 792.61 247.95 793.05 373.55"/><polygon points="1708.31 553.44 1708.2 553.44 1708.12 526.7 1708.21 526.7 1708.31 553.44"/><polygon points="1708.64 679.04 1681.91 679.13 1681.47 553.54 1457.95 554.32 1458.4 679.04 1431.66 679.13 1430.68 402.09 1457.41 401.98 1457.86 527.58 1681.37 526.79 1680.93 402.09 1707.67 401.98 1708.12 526.7 1708.2 553.44 1708.64 679.04"/><path d="M793.12,734v-.47L793,706.35H785.6l-269.63,0v.22l.09,27.46.31,85.5.18,51.61.3,84.68.1,27.67h26.73l250.22,0v-.13H794ZM543.59,955.79,542.8,734l223.59,0,.78,221.79Z"/><polygon points="516.06 734 515.97 734 515.97 706.54 516.06 734"/><polygon points="793.12 733.57 793.03 706.35 793.11 706.35 793.12 733.57"/><polygon points="516.95 983.47 516.74 983.47 516.74 955.79 516.85 955.79 516.95 983.47"/><polygon points="543.68 983.47 543.68 983.49 516.95 983.6 516.95 983.47 543.68 983.47"/><polygon points="793.03 706.32 793.03 706.35 785.6 706.35 793.03 706.32"/></svg>